<?xml version="1.0" encoding="utf-8"?>
<!-- Generator: Adobe Illustrator 15.0.0, SVG Export Plug-In . SVG Version: 6.00 Build 0)  -->
<!DOCTYPE svg PUBLIC "-//W3C//DTD SVG 1.1//EN" "http://www.w3.org/Graphics/SVG/1.1/DTD/svg11.dtd">
<svg version="1.1" id="Layer_1" xmlns="http://www.w3.org/2000/svg" xmlns:xlink="http://www.w3.org/1999/xlink" x="0px" y="0px"
	 width="72px" height="18px" viewBox="0 0 72 18" enable-background="new 0 0 72 18" xml:space="preserve">
<g>
	<path fill="#C8C8C8" d="M13.687,12.43c1.036-1.309,1.659-2.958,1.659-4.757C15.346,3.436,11.91,0,7.673,0C3.435,0,0,3.436,0,7.673
		s3.435,7.673,7.673,7.673c0.589,0,1.16-0.072,1.71-0.198v0.002L14.192,18L13.687,12.43L13.687,12.43z"/>
	<path fill="#75BEE9" d="M32.572,12.43c1.036-1.309,1.659-2.958,1.659-4.757C34.231,3.436,30.795,0,26.558,0
		c-4.238,0-7.674,3.436-7.674,7.673s3.436,7.673,7.674,7.673c0.588,0,1.16-0.072,1.71-0.198l0,0.002L33.077,18L32.572,12.43
		L32.572,12.43z"/>
	<path fill="#ABD037" d="M51.456,12.43c1.036-1.309,1.659-2.958,1.659-4.757C53.115,3.436,49.68,0,45.442,0
		c-4.238,0-7.673,3.436-7.673,7.673s3.435,7.673,7.673,7.673c0.589,0,1.159-0.072,1.711-0.198l-0.001,0.002L51.961,18L51.456,12.43
		L51.456,12.43z"/>
	<path fill="#504E4D" d="M70.342,12.43C71.377,11.121,72,9.472,72,7.673C72,3.436,68.564,0,64.327,0s-7.673,3.436-7.673,7.673
		s3.436,7.673,7.673,7.673c0.588,0,1.16-0.072,1.711-0.198l-0.001,0.002L70.847,18L70.342,12.43L70.342,12.43z"/>
</g>
</svg>
