<?xml version="1.0" encoding="utf-8"?>
<!-- Generator: Adobe Illustrator 15.0.0, SVG Export Plug-In . SVG Version: 6.00 Build 0)  -->
<!DOCTYPE svg PUBLIC "-//W3C//DTD SVG 1.1//EN" "http://www.w3.org/Graphics/SVG/1.1/DTD/svg11.dtd">
<svg version="1.1" id="Layer_1" xmlns="http://www.w3.org/2000/svg" xmlns:xlink="http://www.w3.org/1999/xlink" x="0px" y="0px"
	 width="108px" height="90px" viewBox="0 0 108 90" enable-background="new 0 0 108 90" xml:space="preserve">
<path fill="#ABD037" d="M103.999,24.085H56.479l-2.477-2.8l-2.476,2.8H4c-2.209,0-4,1.791-4,4V86c0,2.209,1.791,4,4,4h100
	c2.21,0,4-1.791,4-4V28.085C107.999,25.876,106.209,24.085,103.999,24.085z"/>
<circle fill="#677176" cx="54" cy="9.5" r="9.5"/>
<g>
	<g>
		<path fill="#ABD037" d="M54,16.243c-3.717,0-6.742-3.025-6.742-6.744c0-3.717,3.025-6.743,6.742-6.743s6.743,3.026,6.743,6.743
			C60.743,13.218,57.718,16.243,54,16.243z"/>
		<path fill="#FFFFFF" d="M54,3.675c3.209,0,5.824,2.614,5.824,5.824c0,3.213-2.614,5.825-5.824,5.825
			c-3.211,0-5.822-2.612-5.822-5.825C48.179,6.289,50.789,3.675,54,3.675 M54,1.836c-4.232,0-7.663,3.432-7.663,7.663
			c0,4.233,3.431,7.665,7.663,7.665c4.232,0,7.662-3.432,7.662-7.665C61.662,5.268,58.232,1.836,54,1.836L54,1.836z"/>
	</g>
</g>
</svg>
