<?xml version="1.0" encoding="utf-8"?>
<!-- Generator: Adobe Illustrator 15.0.0, SVG Export Plug-In . SVG Version: 6.00 Build 0)  -->
<!DOCTYPE svg PUBLIC "-//W3C//DTD SVG 1.1//EN" "http://www.w3.org/Graphics/SVG/1.1/DTD/svg11.dtd">
<svg version="1.1" id="Layer_1" xmlns="http://www.w3.org/2000/svg" xmlns:xlink="http://www.w3.org/1999/xlink" x="0px" y="0px"
	 width="600px" height="13px" viewBox="0 0 600 13" enable-background="new 0 0 600 13" xml:space="preserve">
<g>
	<rect x="6.311" y="5.141" fill="#677176" width="587.385" height="2.353"/>
	<g>
		<path fill="#FFFFFF" d="M6.311,2.106c2.526,0,4.573,2.048,4.573,4.576c0,2.531-2.047,4.578-4.573,4.578
			c-2.53,0-4.58-2.047-4.58-4.578C1.73,4.155,3.781,2.106,6.311,2.106z"/>
		<path fill="#6D6E70" d="M6.311,12.99C2.831,12.99,0,10.16,0,6.682c0-3.477,2.831-6.306,6.311-6.306
			c3.475,0,6.303,2.829,6.303,6.306C12.614,10.16,9.786,12.99,6.311,12.99z M6.311,3.837c-1.572,0-2.85,1.276-2.85,2.845
			c0,1.57,1.278,2.847,2.85,2.847c1.567,0,2.843-1.277,2.843-2.847C9.153,5.113,7.878,3.837,6.311,3.837z"/>
	</g>
	<g>
		<circle fill="#FFFFFF" cx="593.695" cy="6.318" r="4.577"/>
		<path fill="#6D6E70" d="M593.695,12.625c-3.479,0-6.309-2.83-6.309-6.309c0-3.477,2.83-6.306,6.309-6.306
			c3.477,0,6.305,2.829,6.305,6.306C600,9.795,597.172,12.625,593.695,12.625z M593.695,3.471c-1.57,0-2.848,1.276-2.848,2.846
			c0,1.57,1.277,2.848,2.848,2.848c1.568,0,2.845-1.277,2.845-2.848C596.54,4.747,595.264,3.471,593.695,3.471z"/>
	</g>
</g>
</svg>
